<?xml version="1.0" encoding="UTF-8" standalone="no"?>
<!DOCTYPE svg PUBLIC "-//W3C//DTD SVG 1.1//EN" "http://www.w3.org/Graphics/SVG/1.1/DTD/svg11.dtd">
<svg width="100%" height="100%" viewBox="0 0 270 270" version="1.1" xmlns="http://www.w3.org/2000/svg" xmlns:xlink="http://www.w3.org/1999/xlink" xml:space="preserve" xmlns:serif="http://www.serif.com/" style="fill-rule:evenodd;clip-rule:evenodd;stroke-linejoin:round;stroke-miterlimit:2;">
    <g transform="matrix(1,0,0,1,-145,-65)">
        <path d="M415,115C415,87.404 392.596,65 365,65L195,65C167.404,65 145,87.404 145,115L145,285C145,312.596 167.404,335 195,335L365,335C392.596,335 415,312.596 415,285L415,115Z" style="fill:rgb(49,120,198);"/>
    </g>
    <g transform="matrix(1,0,0,1,-145,-65)">
        <path d="M312.168,279.629L312.168,305.996C316.439,308.211 321.66,309.846 327.461,310.953C333.262,312.061 339.59,312.588 345.918,312.588C352.246,312.588 358.047,312.008 363.848,310.795C369.648,309.582 374.395,307.578 378.613,304.994C382.885,302.199 386.523,298.666 388.633,293.92C390.742,289.174 392.377,283.9 392.377,277.045C392.377,272.246 391.639,268.08 390.215,264.389C388.791,260.697 386.734,257.533 383.887,254.896C381.197,252.102 378.086,249.623 374.395,247.514C370.703,245.404 366.484,243.189 361.738,241.186C358.258,239.762 355.41,238.391 352.246,237.02C349.504,235.648 347.131,234.277 345.391,232.906C343.439,231.482 341.963,230.006 340.908,228.477C339.854,226.895 339.326,225.154 339.326,223.203C339.326,221.41 339.796,219.775 340.75,218.299C341.704,216.822 343.018,215.609 344.705,214.555C346.393,213.5 348.502,212.709 351.033,212.129C353.512,211.549 356.254,211.285 359.471,211.285C361.686,211.285 364.006,211.449 366.326,211.781C368.752,212.113 371.23,212.625 373.709,213.31C376.188,213.996 378.613,214.839 381.092,215.894C383.412,216.949 385.574,218.162 387.42,219.533L387.42,194.748C383.412,193.218 378.982,192.058 374.236,191.32C369.49,190.582 364.217,190.212 357.889,190.212C351.561,190.212 345.76,190.898 339.959,192.216C334.158,193.535 329.412,195.644 325.193,198.545C320.922,201.392 317.811,204.873 315.174,209.619C312.695,214.048 311.482,219.111 311.482,225.439C311.482,233.349 313.75,240.205 318.338,245.478C322.873,251.279 329.939,255.498 338.904,259.716C342.543,261.193 345.76,262.67 348.924,264.093C352.088,265.517 354.725,266.994 356.834,268.523C359.102,270.052 360.895,271.74 362.107,273.533C363.426,275.326 364.111,277.435 364.111,279.861C364.111,281.548 363.7,283.13 362.898,284.607C362.097,286.084 360.842,287.349 359.154,288.404C357.467,289.459 355.41,290.302 352.826,290.935C350.348,291.515 347.553,291.832 343.861,291.832C338.061,291.832 332.26,290.83 326.986,288.826C321.186,286.822 315.912,283.816 311.166,279.861L312.168,279.629ZM267.871,214.766L301.621,214.766L301.621,193.145L207.227,193.145L207.227,214.766L240.977,214.766L240.977,311.27L267.871,311.27L267.871,214.766Z" style="fill:white;"/>
    </g>
</svg>
